<?xml version="1.0" encoding="UTF-8"?>
<svg version="1.1" xmlns="http://www.w3.org/2000/svg" width="429" height="138">
<path d="M0 0 C3.01965858 2.75135289 5.55065331 5.736485 8 9 C8.33 7.9275 8.66 6.855 9 5.75 C10.72464898 1.69296859 13.06348604 0.39431809 17.02734375 -1.2890625 C24.50923247 -3.98550556 32.4536222 -3.8532276 39.91796875 -1.12109375 C44.45541127 1.32214453 47.39062527 5.1718758 49 10 C49.13431423 11.43297355 49.22353579 12.87049689 49.28125 14.30859375 C49.33732422 15.55286133 49.33732422 15.55286133 49.39453125 16.82226562 C49.44673828 18.11680664 49.44673828 18.11680664 49.5 19.4375 C49.56915839 21.14468764 49.64194788 22.8517329 49.71875 24.55859375 C49.74904297 25.31454834 49.77933594 26.07050293 49.81054688 26.84936523 C50.00192218 29.02182016 50.29690221 30.93394376 51 33 C51.66 33.33 52.32 33.66 53 34 C53.05799124 30.22923111 53.09359306 26.45857666 53.125 22.6875 C53.15013672 21.0797168 53.15013672 21.0797168 53.17578125 19.43945312 C53.18222656 18.41142578 53.18867187 17.38339844 53.1953125 16.32421875 C53.20578613 15.37635498 53.21625977 14.42849121 53.22705078 13.4519043 C53.17223875 10.74310751 53.17223875 10.74310751 51 8 C51 6.68 51 5.36 51 4 C51.88042969 3.66226563 52.76085937 3.32453125 53.66796875 2.9765625 C54.82941406 2.53054687 55.99085938 2.08453125 57.1875 1.625 C58.33605469 1.18414062 59.48460937 0.74328125 60.66796875 0.2890625 C63.45335994 -0.78852143 66.22997721 -1.8836443 69 -3 C70.70840281 -1.36587557 71.93453047 -0.13093906 73 2 C73.66 1.360625 74.32 0.72125 75 0.0625 C78.70206639 -2.48267064 81.55304515 -3.0810174 86 -3 C88.875 -2.3125 88.875 -2.3125 91 -1 C92.1328125 1.08203125 92.1328125 1.08203125 93 3 C94.60585493 2.37935063 96.20962617 1.7533082 97.8125 1.125 C98.70582031 0.77695312 99.59914062 0.42890625 100.51953125 0.0703125 C103.17711591 -0.98832155 103.17711591 -0.98832155 106 -3 C108.0625 -2.9375 108.0625 -2.9375 110 -2 C111.25 0.5625 111.25 0.5625 112 3 C112.515625 2.566875 113.03125 2.13375 113.5625 1.6875 C119.14850698 -2.1797356 123.26848636 -3.62256004 129.98046875 -2.58203125 C132.87450762 -1.74796589 134.28031402 -0.43622181 136 2 C136.98268038 4.94804114 137.16506402 7.03278754 137.24609375 10.11328125 C137.27896484 11.11423828 137.31183594 12.11519531 137.34570312 13.14648438 C137.40655835 15.24534241 137.46389054 17.34430576 137.51757812 19.44335938 C137.69512693 24.66597428 137.9826526 29.10519585 140 34 C140.6875 36.8125 140.6875 36.8125 141 39 C138.84267167 41.15732833 134.05201247 40.18520919 131.0625 40.1875 C130.22525391 40.19974609 129.38800781 40.21199219 128.52539062 40.22460938 C127.72423828 40.22654297 126.92308594 40.22847656 126.09765625 40.23046875 C125.36039307 40.23457764 124.62312988 40.23868652 123.86352539 40.24291992 C122 40 122 40 120 38 C119.71289062 35.63330078 119.71289062 35.63330078 119.65625 32.6953125 C119.62660156 31.63699219 119.59695312 30.57867187 119.56640625 29.48828125 C119.54449219 28.37839844 119.52257812 27.26851562 119.5 26.125 C119.45655387 23.93991535 119.40480378 21.75497607 119.34375 19.5703125 C119.32505859 18.59852051 119.30636719 17.62672852 119.28710938 16.62548828 C118.99562498 13.95999242 118.35621883 12.28946522 117 10 C115.68 10 114.36 10 113 10 C111.9903466 14.20015816 111.83406793 18.18641435 111.8125 22.5 C111.79832031 23.7890625 111.78414062 25.078125 111.76953125 26.40625 C111.80554302 29.92015054 111.80554302 29.92015054 113.07421875 32.65625 C114 35 114 35 113 40 C106.07 40 99.14 40 92 40 C91.01 38.02 91.01 38.02 90 36 C90.71805575 34.30259028 91.4454539 32.60760488 92.24853516 30.94873047 C93.56085391 27.54556988 93.31587207 24.16020948 93.1875 20.5625 C93.17396484 19.83095703 93.16042969 19.09941406 93.14648438 18.34570312 C93.11153874 16.56347578 93.05774805 14.78163427 93 13 C89.28241166 12.75240622 89.28241166 12.75240622 87.125 13.75 C85 14 85 14 82.0625 11.9375 C79.18381049 9.61225009 79.18381049 9.61225009 76.1875 10.625 C73.87705879 11.81316542 73.87705879 11.81316542 73 14 C72.76419484 16.97352288 72.81482052 19.95563698 72.8125 22.9375 C72.80025391 23.76185547 72.78800781 24.58621094 72.77539062 25.43554688 C72.77345703 26.22896484 72.77152344 27.02238281 72.76953125 27.83984375 C72.76542236 28.56550537 72.76131348 29.29116699 72.75708008 30.03881836 C72.89117166 32.32232248 72.89117166 32.32232248 75 35 C74.625 37.6875 74.625 37.6875 74 40 C68.34001954 40.04934926 62.68016364 40.08569529 57.02001953 40.10986328 C55.09356506 40.11993582 53.16712592 40.13359443 51.24072266 40.15087891 C48.47554748 40.17507241 45.710574 40.18647036 42.9453125 40.1953125 C41.6483696 40.21079636 41.6483696 40.21079636 40.32522583 40.22659302 C38.21546479 40.22699106 36.10619282 40.12265243 34 40 C33.34 39.34 32.68 38.68 32 38 C32 37.01 32 36.02 32 35 C31.05640625 35.54140625 31.05640625 35.54140625 30.09375 36.09375 C24.39429276 39.18381718 20.49057934 40.88007855 14 40 C10.26940785 38.34195904 8.22615506 36.39781562 6 33 C4.68 34.32 3.36 35.64 2 37 C2.66 37.99 3.32 38.98 4 40 C4.1953125 42.26171875 4.1953125 42.26171875 4.125 44.6875 C4.10695312 45.49574219 4.08890625 46.30398437 4.0703125 47.13671875 C4.04710937 47.75160156 4.02390625 48.36648437 4 49 C5.65 49.33 7.3 49.66 9 50 C9.495 51.98 9.495 51.98 10 54 C11.79408332 53.3819713 13.58520478 52.75533919 15.375 52.125 C16.37273437 51.77695313 17.37046875 51.42890625 18.3984375 51.0703125 C21.10442118 50.15217498 21.10442118 50.15217498 23 48 C25.5 48.0625 25.5 48.0625 28 49 C29.3125 51.5625 29.3125 51.5625 30 54 C30.556875 53.38125 31.11375 52.7625 31.6875 52.125 C35.16478624 48.92965589 37.82660877 48.12572049 42.5 47.625 C46.69712172 48.07469161 48.27521564 48.7798003 51 52 C52.00690597 57.9295574 50.13934317 61.19288077 47 66 C44.07937259 65.5943573 42.35313322 65.29617625 40.0625 63.375 C37.97960729 61.7027748 37.97960729 61.7027748 34.875 62.0625 C31.99896649 62.6973339 31.99896649 62.6973339 30.83984375 64.53515625 C29.61849574 68.11967064 29.67142384 71.63246966 29.6875 75.375 C29.67138672 76.1175 29.65527344 76.86 29.63867188 77.625 C29.63522236 81.52985579 29.85725259 83.71450518 31.64453125 87.2890625 C32.09183594 88.18367188 32.53914063 89.07828125 33 90 C32.0847168 92.16943359 32.0847168 92.16943359 31 94 C27.20839703 94.05786668 23.41690689 94.09355054 19.625 94.125 C18.00464844 94.15013672 18.00464844 94.15013672 16.3515625 94.17578125 C15.3203125 94.18222656 14.2890625 94.18867187 13.2265625 94.1953125 C11.79691162 94.21102295 11.79691162 94.21102295 10.33837891 94.22705078 C8 94 8 94 6 92 C5.43023437 92.32097656 4.86046875 92.64195313 4.2734375 92.97265625 C0.53155237 94.66357685 -2.97979832 94.66190496 -7 94 C-11.06455892 91.63516572 -12.63689166 90.08806859 -14.12890625 85.6171875 C-15.68492996 78.76597983 -15.431994 71.66131225 -15.56640625 64.671875 C-15.59605469 63.58648437 -15.62570313 62.50109375 -15.65625 61.3828125 C-15.67494141 60.39684082 -15.69363281 59.41086914 -15.71289062 58.39501953 C-15.77183253 55.81622322 -15.77183253 55.81622322 -18 54 C-17.9296875 51.53515625 -17.9296875 51.53515625 -17 49 C-14.8203125 47.55859375 -14.8203125 47.55859375 -12.125 46.4375 C-8.29484061 44.82391973 -6.25561248 43.53279703 -4 40 C-4.99 40.03480469 -5.98 40.06960937 -7 40.10546875 C-15.69570459 40.32126491 -22.14447003 39.97952975 -29.75 35.3125 C-34.43804139 30.49423524 -36.76409267 24.72335881 -37 18 C-36.63680432 11.19947395 -34.03188417 6.75797574 -29.34765625 1.88671875 C-21.16894812 -4.68618645 -9.12782808 -4.59940326 0 0 Z M-16 4 C-18.23465229 7.35197843 -18.27108649 8.57791246 -18.25 12.5 C-18.25515625 13.4590625 -18.2603125 14.418125 -18.265625 15.40625 C-18.17982609 18.23622897 -18.17982609 18.23622897 -16 21 C-14.68 21 -13.36 21 -12 21 C-10.30757601 18.04497399 -9.72671199 15.90004978 -9.75 12.5 C-9.74484375 11.7471875 -9.7396875 10.994375 -9.734375 10.21875 C-10.02749596 7.7703279 -10.78183231 6.12695946 -12 4 C-13.32 4 -14.64 4 -16 4 Z M20 9 C19.34 9.99 18.68 10.98 18 12 C21.77865693 13.25955231 23.03411786 12.48087189 26.6875 11.0625 C27.68136719 10.68222656 28.67523438 10.30195312 29.69921875 9.91015625 C30.45847656 9.60980469 31.21773437 9.30945313 32 9 C31.67 7.35 31.34 5.7 31 4 C25.40072837 3.3489219 23.55801169 4.75015271 20 9 Z M7 12 C6.82726562 12.59167969 6.65453125 13.18335937 6.4765625 13.79296875 C4.71323163 18.75132575 3.04248862 21.50627349 -1.6875 24 C-6.4775536 26.07118217 -10.8090204 26.74882357 -16 27 C-16 28.65 -16 30.3 -16 32 C-11.10734492 33.08739625 -11.10734492 33.08739625 -6.375 31.875 C-3.86334187 29.99018899 -3.86334187 29.99018899 -1.5 27.3125 C1 25 1 25 3.8125 24.6875 C4.534375 24.790625 5.25625 24.89375 6 25 C6.33 25.66 6.66 26.32 7 27 C7.37125 25.7625 7.7425 24.525 8.125 23.25 C9.78700966 18.72162585 11.80858865 17.23541939 16 15 C12.81237635 12.87491756 10.73487777 12.4979837 7 12 Z M25 19 C23.32419074 22.65631112 22.71389765 24.14169295 24 28 C26.97 28.495 26.97 28.495 30 29 C32.20914 25.68629 32.22481553 24.6553979 32.125 20.8125 C32.10695313 19.91144531 32.08890625 19.01039062 32.0703125 18.08203125 C32.04710938 17.39496094 32.02390625 16.70789063 32 16 C28.93698031 16 27.42606233 17.18045325 25 19 Z M4 55 C3.85490249 59.41632177 3.76599182 63.83203193 3.6875 68.25 C3.64560547 69.50425781 3.60371094 70.75851563 3.56054688 72.05078125 C3.54443359 73.25605469 3.52832031 74.46132812 3.51171875 75.703125 C3.48553467 76.81333008 3.45935059 77.92353516 3.43237305 79.06738281 C3.74863973 82.22785086 3.74863973 82.22785086 6.53051758 84.39355469 C7.34544678 84.92368164 8.16037598 85.45380859 9 86 C11.47598733 83.52401267 10.1855126 76.89139842 10.1875 73.5625 C10.19974609 72.48677734 10.21199219 71.41105469 10.22460938 70.30273438 C10.22654297 69.27599609 10.22847656 68.24925781 10.23046875 67.19140625 C10.23663208 65.77130249 10.23663208 65.77130249 10.24291992 64.32250977 C10.22616506 61.80635656 10.22616506 61.80635656 8 60 C7.875 57.375 7.875 57.375 8 55 C6.68 55 5.36 55 4 55 Z " fill="#FEFEFE" transform="translate(73,31)"/>
<path d="M0 0 C2.21222782 1.53576146 4.03724388 3.13789804 6 5 C10.65898802 3.01745191 15.28363177 0.97659503 19.88671875 -1.1328125 C21.91150104 -1.96368435 23.86610471 -2.5279419 26 -3 C26.99 -1.35 27.98 0.3 29 2 C29.556875 1.54625 30.11375 1.0925 30.6875 0.625 C35.3865441 -2.67703099 39.25285938 -3.51313756 45 -3 C47.9375 -2 47.9375 -2 50 0 C50.723128 5.51385103 50.21512477 9.29213873 47 14 C45.125 15.125 45.125 15.125 43 15 C41.32916181 13.67189785 39.66270287 12.33827304 38 11 C35.02377412 10.50396235 33.71558098 10.48887073 31.25 12.25 C27.71203097 17.20315664 28.68146185 24.22080783 29 30 C29.47233645 32.46862638 30.17135144 34.61154238 31 37 C31.6875 39.875 31.6875 39.875 32 42 C31 43 31 43 28.68334961 43.11352539 C27.68311768 43.10828857 26.68288574 43.10305176 25.65234375 43.09765625 C24.57275391 43.09443359 23.49316406 43.09121094 22.38085938 43.08789062 C21.24455078 43.07951172 20.10824219 43.07113281 18.9375 43.0625 C17.79732422 43.05798828 16.65714844 43.05347656 15.48242188 43.04882812 C12.65489649 43.03699747 9.8274736 43.0205141 7 43 C6.375 40.6875 6.375 40.6875 6 38 C6.66 37.01 7.32 36.02 8 35 C10.05984052 23.76664589 10.05984052 23.76664589 8 13 C7.6596875 14.5778125 7.6596875 14.5778125 7.3125 16.1875 C6.20639469 20.1597906 4.11370115 22.29599637 1 25 C1.78375 25.2475 2.5675 25.495 3.375 25.75 C6 27 6 27 7.5 28.75 C8 31 8 31 7.125 33.9375 C4.00106268 38.43964495 -0.06536955 41.24606242 -5.40234375 42.6171875 C-14.09702721 43.89850927 -22.35975122 43.71082697 -30 39 C-36.0937611 33.78808188 -38.57213351 28.62095809 -39.3125 20.625 C-38.71164107 13.65503636 -36.71704225 7.66090681 -31.8515625 2.5078125 C-22.86175732 -4.81299931 -10.14486005 -5.03310886 0 0 Z M-17 4 C-20.06909767 8.6036465 -20.28653883 12.41101195 -19.3125 17.8125 C-18.31306366 21.07347286 -18.31306366 21.07347286 -15.875 22.4375 C-15.25625 22.623125 -14.6375 22.80875 -14 23 C-12.38396688 21.90471313 -12.38396688 21.90471313 -11 20 C-10.56046986 16.90344009 -10.56046986 16.90344009 -10.6875 13.5 C-10.69136719 12.3553125 -10.69523437 11.210625 -10.69921875 10.03125 C-10.7777211 6.82443455 -10.7777211 6.82443455 -13 4 C-14.32 4 -15.64 4 -17 4 Z M-4 27 C-7.14365099 27.20209557 -7.14365099 27.20209557 -10.625 27.875 C-12.40777344 28.18050781 -12.40777344 28.18050781 -14.2265625 28.4921875 C-15.14179688 28.65976563 -16.05703125 28.82734375 -17 29 C-17.33 30.65 -17.66 32.3 -18 34 C-14.11271451 35.80142498 -12.48461127 36.14784751 -8.3125 34.875 C-5.22717391 33.128589 -3.76312525 32.00768426 -2 29 C-2.66 28.34 -3.32 27.68 -4 27 Z " fill="#FEFEFE" transform="translate(306,82)"/>
<path d="M0 0 C0.78375 0.2475 1.5675 0.495 2.375 0.75 C3.8514236 3.7028472 3.59772939 6.43448983 3.69140625 9.7265625 C3.71218735 10.41181 3.73296844 11.0970575 3.75437927 11.80307007 C3.81980185 13.99361069 3.87872554 16.18427189 3.9375 18.375 C3.98069218 19.8593875 4.0243067 21.34376278 4.06835938 22.828125 C4.17547553 26.46862084 4.27676362 30.10925251 4.375 33.75 C7.76157027 29.36716694 7.76157027 29.36716694 8.0625 24 C7.835625 22.9275 7.60875 21.855 7.375 20.75 C7.705 20.09 8.035 19.43 8.375 18.75 C14.645 18.75 20.915 18.75 27.375 18.75 C27.87 21.225 27.87 21.225 28.375 23.75 C23.54842499 27.091475 18.5338796 29.95274084 13.375 32.75 C14.2825 33.141875 15.19 33.53375 16.125 33.9375 C22.28412595 37.37239716 24.44394614 42.68874 27 48.9375 C29.033334 54.24488484 29.033334 54.24488484 32.375 58.75 C32 61.375 32 61.375 31.375 63.75 C28.27114789 63.86613204 25.16785338 63.93722029 22.0625 64 C21.18142578 64.03351563 20.30035156 64.06703125 19.39257812 64.1015625 C12.91009046 64.20015547 12.91009046 64.20015547 10.40625 62.09375 C9.22868886 59.41747469 8.14212361 56.76511666 7.1875 54 C6.84332031 53.01515625 6.49914062 52.0303125 6.14453125 51.015625 C5.89058594 50.26796875 5.63664062 49.5203125 5.375 48.75 C5.045 48.75 4.715 48.75 4.375 48.75 C4.02666856 53.62664009 4.95814288 56.52050005 7.375 60.75 C6.715 61.74 6.055 62.73 5.375 63.75 C3.03662109 64.09057617 3.03662109 64.09057617 0.1484375 64.04296875 C-0.8828125 64.03330078 -1.9140625 64.02363281 -2.9765625 64.01367188 C-4.59691406 63.9759668 -4.59691406 63.9759668 -6.25 63.9375 C-7.33796875 63.92396484 -8.4259375 63.91042969 -9.546875 63.89648438 C-12.24007409 63.86104754 -14.93229374 63.81164331 -17.625 63.75 C-18.615 60.285 -18.615 60.285 -19.625 56.75 C-18.965 56.75 -18.305 56.75 -17.625 56.75 C-16.29689463 52.76568388 -16.46245001 48.93186902 -16.45703125 44.77734375 C-16.45370285 43.89849014 -16.45037445 43.01963654 -16.44694519 42.114151 C-16.44188452 40.25733972 -16.4395366 38.40051935 -16.43969727 36.54370117 C-16.43750577 33.69499893 -16.41932741 30.84668084 -16.40039062 27.99804688 C-16.39745759 26.19531383 -16.39547219 24.39257894 -16.39453125 22.58984375 C-16.38375298 21.30701759 -16.38375298 21.30701759 -16.37275696 19.99827576 C-16.176249 15.39567354 -16.176249 15.39567354 -18.625 11.75 C-18.75 9.125 -18.75 9.125 -18.625 6.75 C-17.72136719 6.41226563 -16.81773437 6.07453125 -15.88671875 5.7265625 C-14.70722656 5.28054687 -13.52773437 4.83453125 -12.3125 4.375 C-10.55486328 3.71371094 -10.55486328 3.71371094 -8.76171875 3.0390625 C-1.10953608 -0.1056701 -1.10953608 -0.1056701 0 0 Z M3.375 42.75 C4.375 45.75 4.375 45.75 4.375 45.75 Z " fill="#FEFEFE" transform="translate(235.625,61.25)"/>
<path d="M0 0 C5.54036975 7.16989026 5.56217299 13.74071827 5.65234375 22.45507812 C5.78927709 27.77534119 6.62723846 30.96956193 9.125 35.75 C8.795 37.4 8.465 39.05 8.125 40.75 C1.525 40.75 -5.075 40.75 -11.875 40.75 C-12.535 39.1 -13.195 37.45 -13.875 35.75 C-14.80119141 36.29140625 -14.80119141 36.29140625 -15.74609375 36.84375 C-21.55179494 40.02495613 -26.22483231 41.9351784 -32.875 40.75 C-36.4294915 39.35911202 -37.58751242 38.18618806 -39.6875 35 C-41.45877529 30.1522992 -41.50522227 26.56652303 -39.8125 21.6875 C-37.35664826 17.96411188 -34.38201055 15.45952596 -30.875 12.75 C-31.844375 12.440625 -32.81375 12.13125 -33.8125 11.8125 C-36.875 10.75 -36.875 10.75 -37.875 9.75 C-38.375 6.5625 -38.375 6.5625 -37.875 2.75 C-34.67669918 -1.55990537 -30.38426368 -4.01349405 -25.10546875 -5.00390625 C-15.97191816 -6.011636 -7.47668266 -5.85131687 0 0 Z M-25.75 6.1875 C-26.53117188 7.01121094 -27.31234375 7.83492187 -28.1171875 8.68359375 C-29.98299016 10.42479495 -29.98299016 10.42479495 -29.875 11.75 C-23.99035081 11.3630276 -19.06207644 10.6677305 -13.875 7.75 C-12.65207415 5.78676643 -12.65207415 5.78676643 -12.875 3.75 C-14.74406261 1.48083398 -14.74406261 1.48083398 -17.6953125 1.34765625 C-21.77282759 1.86360718 -22.98849958 3.20749702 -25.75 6.1875 Z M-18.4375 17.0625 C-19.36755859 17.70638672 -19.36755859 17.70638672 -20.31640625 18.36328125 C-22.15880386 19.77047805 -22.15880386 19.77047805 -22.875 22.75 C-21.99180706 25.90020361 -21.99180706 25.90020361 -20.875 28.75 C-18.50125139 29.08425735 -18.50125139 29.08425735 -15.875 28.75 C-13.72537286 26.55981386 -12.93091071 25.24201421 -12.58203125 22.171875 C-12.63423828 20.84929687 -12.63423828 20.84929687 -12.6875 19.5 C-12.71457031 18.60796875 -12.74164063 17.7159375 -12.76953125 16.796875 C-12.80433594 16.12140625 -12.83914062 15.4459375 -12.875 14.75 C-15.44383972 14.75 -16.35661693 15.58980823 -18.4375 17.0625 Z " fill="#FEFEFE" transform="translate(163.875,84.25)"/>
<path d="M0 0 C1.90634519 4.0017494 2.4111235 6.76662949 1 11 C-1 13 -1 13 -4.25 13.0625 C-8.71379847 11.7977571 -10.04058307 10.20053551 -12.73828125 6.59375 C-13.92830149 4.85931379 -13.92830149 4.85931379 -16 4 C-17.99960012 3.960008 -20.00047242 3.95653201 -22 4 C-21.67 5.65 -21.34 7.3 -21 9 C-19.74703125 9.38671875 -18.4940625 9.7734375 -17.203125 10.171875 C-15.551878 10.69727177 -13.90084749 11.22334927 -12.25 11.75 C-11.425 12.00265625 -10.6 12.2553125 -9.75 12.515625 C-5.27663984 13.95864441 -1.91801716 15.09907179 1 19 C2.66816613 24.00449839 2.8978967 29.03317865 0.6875 33.875 C-3.26916617 38.85746851 -6.76641844 40.68719701 -13 42 C-22.24220024 42.85575928 -30.4490329 42.34356766 -38.0625 36.75 C-40.53768249 33.23683775 -40.63537912 31.20938668 -40 27 C-37 25 -37 25 -34.75 24.9375 C-31.12921182 26.33644089 -29.15707054 28.58614097 -26.55078125 31.40625 C-24.72534807 33.28226193 -23.68160216 33.96578302 -21.0546875 34.09765625 C-20.33539063 34.08605469 -19.61609375 34.07445312 -18.875 34.0625 C-16.956875 34.0315625 -16.956875 34.0315625 -15 34 C-14.89980798 32.06086825 -14.89980798 32.06086825 -16 30 C-18.58593083 28.8337959 -20.99940194 27.91250089 -23.6875 27.0625 C-29.50262623 25.20525768 -33.57022798 23.28166415 -38 19 C-40.3915892 14.32080373 -40.49783199 9.969628 -39 5 C-35.99670266 0.02578879 -33.08928559 -1.99067431 -27.50390625 -3.52734375 C-18.38735666 -5.24825249 -8.3232907 -4.23525268 0 0 Z " fill="#FDFDFD" transform="translate(396,83)"/>
<path d="M0 0 C3.8031818 3.02653204 6.18423132 6.23664475 7.0625 11.0625 C6.99470818 15.33338467 6.35343625 17.46984562 4 21 C-0.0016041 23.66773607 -3.29431148 23.71478813 -8 23 C-10.50160818 21.12379387 -11.61945652 19.76108697 -13 17 C-12.91188555 14.78861145 -12.7570216 12.57957815 -12.5625 10.375 C-12.46066406 9.18648437 -12.35882813 7.99796875 -12.25390625 6.7734375 C-12.17011719 5.85820313 -12.08632812 4.94296875 -12 4 C-13.99863756 4.57944932 -13.99863756 4.57944932 -16 6 C-18.07319197 10.47546204 -18.29759676 14.61173804 -18.3125 19.5 C-18.32925781 20.7684375 -18.34601563 22.036875 -18.36328125 23.34375 C-17.9725923 27.27584523 -17.10104336 29.67293605 -15 33 C-12.20301296 34.73801735 -12.20301296 34.73801735 -9 35 C-5.61390833 33.6613126 -4.30942786 32.54149875 -2.5 29.375 C-1 27 -1 27 1.5 26.0625 C4 26 4 26 7 28 C6.93240615 31.3796927 6.78179171 34.01888462 4.62109375 36.73046875 C-2.08815544 42.80931868 -9.0460508 43.41142567 -17.84375 43.25 C-24.86330963 42.69399528 -30.03517262 40.07766436 -35 35 C-39.83301266 28.68106109 -39.81382174 21.67737862 -39 14 C-37.70312096 8.70985312 -34.8156503 3.72422297 -30.10546875 0.83984375 C-20.7818403 -3.98630159 -9.52411319 -5.21514548 0 0 Z " fill="#FEFEFE" transform="translate(211,82)"/>
<path d="M0 0 C2.625 0.375 2.625 0.375 5 1 C5.95523754 3.86571262 6.13973252 5.72043307 6.17358398 8.69921875 C6.18707382 9.65030518 6.20056366 10.6013916 6.21446228 11.58129883 C6.22490067 12.60634521 6.23533905 13.6313916 6.24609375 14.6875 C6.2790208 16.85156672 6.31223263 19.01562912 6.34570312 21.1796875 C6.39320196 24.59665057 6.43765576 28.01359472 6.47680664 31.43066406 C6.51642918 34.72479201 6.56798558 38.01856581 6.62109375 41.3125 C6.6295079 42.33754639 6.63792206 43.36259277 6.64659119 44.41870117 C6.66323318 45.3697876 6.67987518 46.32087402 6.69702148 47.30078125 C6.70732895 48.13778564 6.71763641 48.97479004 6.72825623 49.8371582 C6.87338563 52.29394729 6.87338563 52.29394729 9 55 C8.67 56.65 8.34 58.3 8 60 C0.74 60 -6.52 60 -14 60 C-14.33 58.35 -14.66 56.7 -15 55 C-14.34 54.01 -13.68 53.02 -13 52 C-12.80367716 49.04978629 -12.72000809 46.19622484 -12.734375 43.24609375 C-12.73246155 42.38943619 -12.7305481 41.53277863 -12.72857666 40.65016174 C-12.72721627 38.84042059 -12.73090253 37.03066964 -12.73925781 35.22094727 C-12.74997259 32.44460251 -12.73935096 29.6689029 -12.7265625 26.89257812 C-12.72788386 25.13541523 -12.73044578 23.37825274 -12.734375 21.62109375 C-12.72830231 20.37107826 -12.72830231 20.37107826 -12.72210693 19.09580994 C-12.5621639 14.57308505 -12.5621639 14.57308505 -15 11 C-15 9.68 -15 8.36 -15 7 C-14.08476562 6.66226562 -13.16953125 6.32453125 -12.2265625 5.9765625 C-11.03804687 5.53054687 -9.84953125 5.08453125 -8.625 4.625 C-7.44164062 4.18414063 -6.25828125 3.74328125 -5.0390625 3.2890625 C-1.95506554 2.2049658 -1.95506554 2.2049658 0 0 Z " fill="#FEFEFE" transform="translate(29,11)"/>
<path d="M0 0 C3.66038942 -0.11640814 7.306905 -0.1166012 10.96826172 -0.03320312 C12.32127179 -0.01109193 13.6747825 -0.00974884 15.02783203 -0.02929688 C29.63780981 -0.15337312 39.38521198 6.31578084 51.0390625 14.63305664 C52.94939408 16.03495186 52.94939408 16.03495186 55 17 C55 17.66 55 18.32 55 19 C52.36 19 49.72 19 47 19 C46.87882812 19.69867188 46.75765625 20.39734375 46.6328125 21.1171875 C46.38144531 22.48230469 46.38144531 22.48230469 46.125 23.875 C45.96257812 24.77992187 45.80015625 25.68484375 45.6328125 26.6171875 C45 29 45 29 43 31 C42.34 30.34 41.68 29.68 41 29 C41.5259375 28.1028125 41.5259375 28.1028125 42.0625 27.1875 C43.33304698 24.89186786 43.33304698 24.89186786 42 22 C41.01 21.67 40.02 21.34 39 21 C39 21.66 39 22.32 39 23 C35.5104742 21.92629976 32.27261022 20.65904443 29 19.0625 C22.95496174 16.29401764 16.50022469 15.22052583 10 14 C10.33 12.35 10.66 10.7 11 9 C10.2059375 8.43410156 9.411875 7.86820312 8.59375 7.28515625 C7.5728125 6.55167969 6.551875 5.81820312 5.5 5.0625 C4.4790625 4.33160156 3.458125 3.60070312 2.40625 2.84765625 C1.6121875 2.23792969 0.818125 1.62820312 0 1 C0 0.67 0 0.34 0 0 Z M40 18 C41.98 18.99 41.98 18.99 44 20 C44.33 19.34 44.66 18.68 45 18 C43.35 18 41.7 18 40 18 Z " fill="#FDFDFD" transform="translate(363,62)"/>
<path d="" fill="#FFFFFF" transform="translate(0,0)"/>
<path d="" fill="#FFFFFF" transform="translate(0,0)"/>
</svg>
